<svg xmlns="http://www.w3.org/2000/svg" width="218" height="45" viewBox="0 0 218 45" fill="none"><g clip-path="url(#clip0_254_1080)"><path d="M38.4115 38.4109C37.3181 39.5043 36.1125 40.4856 34.8788 41.2987C33.7854 39.5604 31.5704 38.7754 29.6078 39.6165C27.6452 40.4296 26.6078 42.5324 27.0564 44.551C22.2059 45.5604 17.047 44.9155 12.533 42.7006L19.5143 35.7193C25.8788 37.2053 32.4396 33.8968 34.991 27.7006C37.8508 20.8034 34.5704 12.8688 27.6732 10.009C20.776 7.14919 12.8134 10.4015 9.95358 17.2987C8.83208 19.9903 8.74797 22.9062 9.22461 25.4296L2.27134 32.4109C0.168533 28.009 -0.560439 22.766 0.448907 17.9155C2.4676 18.3922 4.5704 17.3548 5.38349 15.3922C6.19657 13.4296 5.43956 11.2146 3.70124 10.1211C4.51433 8.85947 5.49564 7.6819 6.58909 6.58844C7.68255 5.49498 8.88816 4.51367 10.1218 3.70059C11.2153 5.4389 13.4302 6.19591 15.3928 5.38283C17.3835 4.56975 18.4209 2.46694 17.9442 0.476289C20.9442 -0.140534 24.0564 -0.140534 27.0283 0.476289C26.5517 2.49498 27.5891 4.59778 29.5517 5.41087C31.5143 6.22395 33.7293 5.46694 34.8227 3.72862C36.0844 4.54171 37.262 5.52302 38.3554 6.61648C39.4489 7.70993 40.4302 8.91554 41.2433 10.1492C39.505 11.2426 38.748 13.4576 39.5611 15.4202C40.3741 17.3828 42.4769 18.4202 44.4956 17.9436C45.1125 20.9436 45.1125 24.0557 44.4956 27.0557C42.4769 26.5791 40.3741 27.6165 39.5611 29.5791C38.748 31.5417 39.505 33.7847 41.2433 34.8501C40.4863 36.1118 39.505 37.3174 38.4115 38.4109Z" fill="white"></path><path d="M32.0183 18.9523L25.3734 25.5972L20.551 24.3916L19.3454 19.5691L25.9342 12.9804C22.2893 11.6626 18.2239 12.5037 15.3641 15.3635C12.336 18.3635 11.6071 22.8215 13.1491 26.4944L4.12109 35.5224C4.90614 36.5878 5.69119 37.5131 6.58838 38.4103C7.51362 39.3355 8.46689 40.1486 9.50427 40.8495L9.56035 40.9056L18.5603 31.9056C22.2332 33.4476 26.6632 32.7187 29.6912 29.6906C32.6071 26.8028 33.3641 22.5691 32.0183 18.9523Z" fill="#F02801"></path></g><path d="M54 31.6926L66.3849 12.2904H73.5733L79.7224 31.6926H73.071L72.1703 28.6866H62.5395L60.6688 31.6926H54ZM70.8192 24.2118L69.0177 18.2681L65.3109 24.2118H70.8192Z" fill="white"></path><path d="M90.9814 32C87.3959 32 84.9709 31.351 83.7237 30.07C82.4766 28.7891 81.853 27.1494 81.853 25.1682C81.853 24.468 81.9223 23.7165 82.0608 22.8967L83.7583 12.3074H90.1153L88.3659 23.2041C88.3312 23.4774 88.3139 23.7336 88.3139 23.9727C88.3139 25.7489 89.5091 26.62 91.8821 26.62C94.5843 26.62 96.1259 25.4757 96.4897 23.187L98.2391 12.2904H104.596L102.899 22.8796C102.396 26.0051 101.184 28.2938 99.2611 29.7797C97.3211 31.2656 94.567 32 90.9814 32Z" fill="white"></path><path d="M111.074 31.6926L113.378 17.3629H105.272L106.086 12.2904H128.69L127.876 17.3629H119.735L117.431 31.6926H111.074Z" fill="white"></path><path d="M141.422 12C148.316 12 151.78 14.579 151.78 19.737C151.78 20.4543 151.728 21.2058 151.607 22.0085C150.515 28.6695 146.046 32 138.2 32C131.306 32 127.842 29.4381 127.842 24.2972C127.842 23.5798 127.911 22.8113 128.049 21.9915C129.123 15.3305 133.575 12 141.422 12ZM140.556 17.3629C138.823 17.3629 137.472 17.7558 136.52 18.5414C135.567 19.3271 134.961 20.4714 134.718 21.9915C134.666 22.3672 134.632 22.7259 134.632 23.0675C134.632 24.0581 134.943 24.895 135.55 25.5952C136.173 26.2784 137.334 26.62 139.083 26.62C140.815 26.62 142.166 26.2272 143.136 25.4415C144.106 24.6558 144.713 23.5115 144.955 21.9915C145.007 21.6157 145.042 21.257 145.042 20.9155C145.042 19.9249 144.73 19.088 144.106 18.3877C143.466 17.7216 142.288 17.3629 140.556 17.3629Z" fill="white"></path><path d="M152.3 31.6926L155.417 12.2904H174.211L173.397 17.3629H160.96L160.51 20.1127H170.989L170.227 24.895H159.748L158.657 31.6926H152.3Z" fill="white"></path><path d="M173.501 31.6926L176.619 12.2904H182.976L179.858 31.6926H173.501Z" fill="white"></path><path d="M182.889 31.6926L186.007 12.2904H192.364L189.246 31.6926H182.889Z" fill="white"></path><path d="M205.736 17.9949L210.708 12.2904H218L208.612 22.2647L215.003 31.6926H207.122L203.277 25.988L198.288 31.7267H190.996L200.419 21.7353L194.027 12.2904H201.874L205.736 17.9949Z" fill="white"></path><defs><clipPath id="clip0_254_1080"><rect width="45" height="45" fill="white"></rect></clipPath></defs></svg>